<svg viewBox="0 0 16 16" xmlns="http://www.w3.org/2000/svg">
  <path d="M15.25,3.55c.145.91.217,1.877.217,2.9a18.04,18.04,0,0,1-.217,2.867c-.09.59-.414,1.128-.975,1.616s-1.153.767-1.775.833a40.032,40.032,0,0,1-3.616.2L5.7,15.05a.5.5,0,0,1-.367.15.927.927,0,0,1-.217-.034c-.2-.088-.316-.255-.316-.5v-2.733l-1.3-.1c-.61-.067-1.2-.352-1.767-.858s-.9-1.06-1-1.658a20.19,20.19,0,0,1-.2-2.85c0-1,.067-1.973.2-2.917.1-.6.434-1.153,1-1.66S2.9,1.1,3.5,1.033L8,.8c1.444,0,2.944.078,4.5.233.61.067,1.2.353,1.767.858s.894,1.06.983,1.66z"/>
</svg>
