<svg viewBox="0 0 16 16" xmlns="http://www.w3.org/2000/svg">
  <path d="m14.133 1.8667a5.0578 5.0578 0 0 1 1.6016 3.6836 5.6683 5.6683 0 0 1-1.8516 4.083 6.3098 6.3098 0 0 1-0.81641 0.7002c0.01172-0.12207 0.01758-0.3003 0.01758-0.53321a6.4185 6.4185 0 0 0-0.584-2.6504 2.6515 2.6515 0 0 0 0.5664-1.5996 2.4989 2.4989 0 0 0-0.81638-1.8003 2.499 2.499 0 0 0-1.7998-0.81641 3.1947 3.1947 0 0 0-2.1831 1.0664 4.3629 4.3629 0 0 0-0.5835 0.7666 5.3358 5.3358 0 0 1 2.1836 1.3501 5.307 5.307 0 0 1 1.4834 2.5669 4.7797 4.7797 0 0 1-0.18359 2.8667 6.0811 6.0811 0 0 1-0.31641 0.71631 6.8344 6.8344 0 0 1-2.0337 2.3003 5.474 5.474 0 0 1-1.5996 0.88331 5.014 5.014 0 0 1-5.3335-1.3169 5.0334 5.0334 0 0 1-1.6167-3.8247 5.7542 5.7542 0 0 1 1.8667-3.9419 8.4443 8.4443 0 0 1 0.8164-0.7002 6.3194 6.3194 0 0 0 0.55027 3.2168 2.658 2.658 0 0 0-0.54151 1.7334 2.5492 2.5492 0 0 0 0.79151 1.6333 2.5772 2.5772 0 0 0 1.7998 0.81689 3.2373 3.2373 0 0 0 2.1836-1.0669 3.489 3.489 0 0 0 1.0332-1.8501 2.7677 2.7677 0 0 0-0.3833-1.9497 2.6445 2.6445 0 0 0-0.3667-0.5835c-0.0669-0.07764-0.12793-0.144-0.18311-0.2002a3.8837 3.8837 0 0 1-0.81689 3.167 5.0019 5.0019 0 0 1-0.8667-0.7002 5.0335 5.0335 0 0 1-1.6167-3.8247 5.7542 5.7542 0 0 1 1.8667-3.9419 5.638 5.638 0 0 1 4.0498-1.8501 5.06 5.06 0 0 1 3.6826 1.6001z"/>
</svg>
