<svg viewBox="0 0 16 16" xmlns="http://www.w3.org/2000/svg">
  <path d="M15.467 2.617v.766c-.078.3-.273.584-.584.884L9.2 8.567c-.3.244-.7.366-1.2.366s-.888-.122-1.2-.366l-5.684-4.3c-.3-.3-.505-.595-.583-.884v-.766a.48.48 0 0 1 .133-.342.567.567 0 0 1 .316-.175A49.14 49.14 0 0 1 8 1.6c2.365 0 4.7.167 7 .5a.57.57 0 0 1 .332.175.48.48 0 0 1 .135.342zM8 10.667c-.867 0-1.595-.223-2.183-.667L.533 5.95v7.433a.48.48 0 0 0 .133.342.57.57 0 0 0 .317.175c2.322.333 4.66.5 7.017.5 2.365 0 4.7-.167 7-.5a.569.569 0 0 0 .332-.175.478.478 0 0 0 .135-.342V5.95L10.184 10c-.6.444-1.32.667-2.184.667z"/>
</svg>
