<svg viewBox="0 0 16 16" xmlns="http://www.w3.org/2000/svg">
  <path d="M1.95 11.383C.65 10.084 0 8.512 0 6.667A6.42 6.42 0 0 1 1.949 1.95C3.25.65 4.82 0 6.665 0s3.416.65 4.715 1.95 1.952 2.872 1.952 4.717c0 .978-.2 1.9-.602 2.765l2.95 4.018c.266.356.367.75.3 1.184a1.56 1.56 0 0 1-.633 1.05c-.288.212-.608.316-.958.316s-.67-.104-.957-.316l-4-2.95c-.866.4-1.788.6-2.767.6a6.43 6.43 0 0 1-4.715-1.951zm8.014-1.416a4.49 4.49 0 0 0 1.369-3.3 4.49 4.49 0 0 0-1.369-3.3 4.48 4.48 0 0 0-3.298-1.366 4.5 4.5 0 0 0-3.301 1.366A4.5 4.5 0 0 0 2 6.667a4.5 4.5 0 0 0 1.364 3.3 4.5 4.5 0 0 0 3.301 1.366 4.48 4.48 0 0 0 3.298-1.366z"/>
</svg>
