<svg viewBox="0 0 16 16" xmlns="http://www.w3.org/2000/svg">
  <path d="M15.083 15.183l-.066.017-.2.04-.317.068-.458.084-.592.074c-1.5.178-3.305.268-5.45.268-3.256 0-5.616-.184-7.083-.55a.57.57 0 0 1-.31-.242c-.074-.116-.1-.247-.057-.392.155-.733.428-1.34.816-1.816s.9-.923 1.568-1.334c.2-.122.593-.306 1.182-.55l.834-.35a3.18 3.18 0 0 0 .642-.4c.228-.178.375-.36.44-.55.135-.4-.026-.94-.482-1.65-1.4-2.244-1.66-4.15-.75-5.717A3.82 3.82 0 0 1 6.167.775 3.5 3.5 0 0 1 8 .265a3.46 3.46 0 0 1 1.825.51c.56.34 1.02.808 1.375 1.408.9 1.556.666 3.46-.733 5.717-.445.7-.612 1.25-.5 1.65.1.278.294.5.616.7s.762.4 1.317.6l1.166.55c.656.4 1.178.855 1.568 1.334s.66 1.083.816 1.816c.033.145.014.275-.058.392s-.175.197-.3.24z"/>
</svg>
