<!-- RG Icons v1.0.0 -->
<svg preserveAspectRatio="xMidYMid meet" style="display:none" xmlns="http://www.w3.org/2000/svg">
  <symbol id="arrow" viewBox="0 0 16 16">
    <path d="m0,11.113,1.886,1.887,6.117-6.226,6.111,6.226,1.886-1.887-7.997-8.113z"/>
  </symbol>
  <symbol id="camera" viewBox="0 0 16 16">
    <path d="M15.033,4.4a23.916,23.916,0,0,1,0,9.067.72.72,0,0,1-.241.383.805.805,0,0,1-.408.2A58.67,58.67,0,0,1,8,14.4a57.09,57.09,0,0,1-6.3-.35.804.804,0,0,1-.425-.2.63.63,0,0,1-.225-.383C.705,11.7.533,10.214.533,8.975S.705,6.21,1.05,4.4a.666.666,0,0,1,.225-.392A.783.783,0,0,1,1.7,3.8l2.484-.217A50.64,50.64,0,0,1,4.583,2.3a.924.924,0,0,1,.3-.408.785.785,0,0,1,.433-.192A35.74,35.74,0,0,1,8,1.6l2.75.1a.79.79,0,0,1,.434.192.93.93,0,0,1,.3.408l.4,1.283,2.5.217c.143.022.28.092.408.208a.765.765,0,0,1,.241.392zM4.958,11.575A4.15,4.15,0,0,0,8,12.85c1.178,0,2.19-.425,3.042-1.275a4.15,4.15,0,0,0,1.274-3.042c0-1.177-.424-2.19-1.274-3.04A4.15,4.15,0,0,0,8,4.217c-1.178,0-2.19.425-3.042,1.275s-1.274,1.864-1.274,3.04a4.15,4.15,0,0,0,1.274,3.042zM6.116,6.65a2.57,2.57,0,0,0-.783,1.883c0,.733.262,1.362.783,1.884A2.57,2.57,0,0,0,8,11.2a2.57,2.57,0,0,0,1.884-.783,2.57,2.57,0,0,0,.783-1.884,2.57,2.57,0,0,0-.783-1.883A2.57,2.57,0,0,0,8,5.867c-.734,0-1.36.26-1.884.783z"/>
  </symbol>
  <symbol id="check" viewBox="0 0 16 16">
    <path d="M6.99268 15.13623L.23047 8.37598l1.41406-1.41407 5.0376 5.03565L14.10547.86377l1.66406 1.10937z"/>
  </symbol>
  <symbol id="comment" viewBox="0 0 16 16">
    <path d="M15.25,3.55c.145.91.217,1.877.217,2.9a18.04,18.04,0,0,1-.217,2.867c-.09.59-.414,1.128-.975,1.616s-1.153.767-1.775.833a40.032,40.032,0,0,1-3.616.2L5.7,15.05a.5.5,0,0,1-.367.15.927.927,0,0,1-.217-.034c-.2-.088-.316-.255-.316-.5v-2.733l-1.3-.1c-.61-.067-1.2-.352-1.767-.858s-.9-1.06-1-1.658a20.19,20.19,0,0,1-.2-2.85c0-1,.067-1.973.2-2.917.1-.6.434-1.153,1-1.66S2.9,1.1,3.5,1.033L8,.8c1.444,0,2.944.078,4.5.233.61.067,1.2.353,1.767.858s.894,1.06.983,1.66z"/>
  </symbol>
  <symbol id="cross" viewBox="0 0 16 16">
    <path d="M1.293,2.707l1.414-1.414L8,6.586l5.293-5.293,1.414,1.414L9.414,8l5.293,5.293-1.414,1.414L8,9.414l-5.293,5.293-1.414-1.414L6.586,8"/>
  </symbol>
  <symbol id="dots" viewBox="0 0 16 16">
    <path d="M4,8a2,2,0,1,1-4,0,2,2,0,1,1,4,0zm6,0a2,2,0,1,1-4,0,2,2,0,1,1,4,0zm6,0a2,2,0,1,1-4,0,2,2,0,1,1,4,0z"/>
  </symbol>
  <symbol id="link" viewBox="0 0 16 16">
    <path d="m14.133 1.8667a5.0578 5.0578 0 0 1 1.6016 3.6836 5.6683 5.6683 0 0 1-1.8516 4.083 6.3098 6.3098 0 0 1-0.81641 0.7002c0.01172-0.12207 0.01758-0.3003 0.01758-0.53321a6.4185 6.4185 0 0 0-0.584-2.6504 2.6515 2.6515 0 0 0 0.5664-1.5996 2.4989 2.4989 0 0 0-0.81638-1.8003 2.499 2.499 0 0 0-1.7998-0.81641 3.1947 3.1947 0 0 0-2.1831 1.0664 4.3629 4.3629 0 0 0-0.5835 0.7666 5.3358 5.3358 0 0 1 2.1836 1.3501 5.307 5.307 0 0 1 1.4834 2.5669 4.7797 4.7797 0 0 1-0.18359 2.8667 6.0811 6.0811 0 0 1-0.31641 0.71631 6.8344 6.8344 0 0 1-2.0337 2.3003 5.474 5.474 0 0 1-1.5996 0.88331 5.014 5.014 0 0 1-5.3335-1.3169 5.0334 5.0334 0 0 1-1.6167-3.8247 5.7542 5.7542 0 0 1 1.8667-3.9419 8.4443 8.4443 0 0 1 0.8164-0.7002 6.3194 6.3194 0 0 0 0.55027 3.2168 2.658 2.658 0 0 0-0.54151 1.7334 2.5492 2.5492 0 0 0 0.79151 1.6333 2.5772 2.5772 0 0 0 1.7998 0.81689 3.2373 3.2373 0 0 0 2.1836-1.0669 3.489 3.489 0 0 0 1.0332-1.8501 2.7677 2.7677 0 0 0-0.3833-1.9497 2.6445 2.6445 0 0 0-0.3667-0.5835c-0.0669-0.07764-0.12793-0.144-0.18311-0.2002a3.8837 3.8837 0 0 1-0.81689 3.167 5.0019 5.0019 0 0 1-0.8667-0.7002 5.0335 5.0335 0 0 1-1.6167-3.8247 5.7542 5.7542 0 0 1 1.8667-3.9419 5.638 5.638 0 0 1 4.0498-1.8501 5.06 5.06 0 0 1 3.6826 1.6001z"/>
  </symbol>
  <symbol id="mail" viewBox="0 0 16 16">
    <path d="M15.467 2.617v.766c-.078.3-.273.584-.584.884L9.2 8.567c-.3.244-.7.366-1.2.366s-.888-.122-1.2-.366l-5.684-4.3c-.3-.3-.505-.595-.583-.884v-.766a.48.48 0 0 1 .133-.342.567.567 0 0 1 .316-.175A49.14 49.14 0 0 1 8 1.6c2.365 0 4.7.167 7 .5a.57.57 0 0 1 .332.175.48.48 0 0 1 .135.342zM8 10.667c-.867 0-1.595-.223-2.183-.667L.533 5.95v7.433a.48.48 0 0 0 .133.342.57.57 0 0 0 .317.175c2.322.333 4.66.5 7.017.5 2.365 0 4.7-.167 7-.5a.569.569 0 0 0 .332-.175.478.478 0 0 0 .135-.342V5.95L10.184 10c-.6.444-1.32.667-2.184.667z"/>
  </symbol>
  <symbol id="pencil" viewBox="0 0 16 16">
    <path d="m9.83 5.333 0.835 0.835-8.07 8.052h-0.817v-0.818l8.052-8.069m3.2-5.333c-0.222 0-0.454 0.088-0.622 0.258l-1.627 1.626 3.333 3.333 1.626-1.626c0.347-0.347 0.347-0.925 0-1.253l-2.08-2.08c-0.178-0.178-0.4-0.258-0.63-0.258m-3.2 2.835-9.83 9.829v3.334h3.333l9.829-9.83-3.332-3.333z"/>
  </symbol>
  <symbol id="play" viewBox="0 0 48 48">
    <circle cx="24" cy="24" r="24"/>
    <path d="M34.3 24l-8.6 5-8.7 5V14l8.7 5" fill="#fff"/>
  </symbol>
  <symbol id="rss" viewBox="0 0 16 16">
    <path d="M4.335 13.835c0 1.196-.97 2.165-2.167 2.165S0 15.03 0 13.835a2.17 2.17 0 0 1 2.168-2.166c1.197.001 2.167.97 2.167 2.166zM0 5.453V8.66c4.033.04 7.307 3.3 7.348 7.34h3.21C10.518 10.193 5.814 5.495 0 5.453zm0-2.245C7.053 3.24 12.768 8.937 12.79 16H16C15.98 7.18 8.83.03 0 0v3.208z"/>
  </symbol>
  <symbol id="search" viewBox="0 0 16 16">
    <path d="M1.95 11.383C.65 10.084 0 8.512 0 6.667A6.42 6.42 0 0 1 1.949 1.95C3.25.65 4.82 0 6.665 0s3.416.65 4.715 1.95 1.952 2.872 1.952 4.717c0 .978-.2 1.9-.602 2.765l2.95 4.018c.266.356.367.75.3 1.184a1.56 1.56 0 0 1-.633 1.05c-.288.212-.608.316-.958.316s-.67-.104-.957-.316l-4-2.95c-.866.4-1.788.6-2.767.6a6.43 6.43 0 0 1-4.715-1.951zm8.014-1.416a4.49 4.49 0 0 0 1.369-3.3 4.49 4.49 0 0 0-1.369-3.3 4.48 4.48 0 0 0-3.298-1.366 4.5 4.5 0 0 0-3.301 1.366A4.5 4.5 0 0 0 2 6.667a4.5 4.5 0 0 0 1.364 3.3 4.5 4.5 0 0 0 3.301 1.366 4.48 4.48 0 0 0 3.298-1.366z"/>
  </symbol>
  <symbol id="share" viewBox="0 0 16 16">
    <path d="M16 13c-.06 2.31-2.597 3.688-4.567 2.482A3 3 0 0 1 9.999 13v-.008l-5.195-2.594c-1.846 1.388-4.502.257-4.78-2.036s2.03-4.027 4.154-3.122a2.99 2.99 0 0 1 .627.362L10 3.008V3c.06-2.31 2.597-3.688 4.567-2.482A3 3 0 0 1 15.999 3c0 2.3-2.5 3.754-4.502 2.6a3.06 3.06 0 0 1-.303-.201L5.983 8l5.21 2.602c1.844-1.39 4.502-.26 4.783 2.03.014.122.022.244.022.367z"/>
  </symbol>
  <symbol id="user" viewBox="0 0 16 16">
    <path d="M15.083 15.183l-.066.017-.2.04-.317.068-.458.084-.592.074c-1.5.178-3.305.268-5.45.268-3.256 0-5.616-.184-7.083-.55a.57.57 0 0 1-.31-.242c-.074-.116-.1-.247-.057-.392.155-.733.428-1.34.816-1.816s.9-.923 1.568-1.334c.2-.122.593-.306 1.182-.55l.834-.35a3.18 3.18 0 0 0 .642-.4c.228-.178.375-.36.44-.55.135-.4-.026-.94-.482-1.65-1.4-2.244-1.66-4.15-.75-5.717A3.82 3.82 0 0 1 6.167.775 3.5 3.5 0 0 1 8 .265a3.46 3.46 0 0 1 1.825.51c.56.34 1.02.808 1.375 1.408.9 1.556.666 3.46-.733 5.717-.445.7-.612 1.25-.5 1.65.1.278.294.5.616.7s.762.4 1.317.6l1.166.55c.656.4 1.178.855 1.568 1.334s.66 1.083.816 1.816c.033.145.014.275-.058.392s-.175.197-.3.24z"/>
  </symbol>
  <symbol id="blogger" viewBox="0 0 16 16">
    <path d="M16,6.754c0-.394-.32-.714-.718-.714h0-.72c-.46.001-.935-.015-1.136-.197-.285-.262-.328-.732-.414-1.37-.16-1.234-.264-1.3-.457-1.716C11.85,1.272,9.942.155,8.63,0H5.08C2.284,0,0,2.277,0,5.057v5.897C0,13.728,2.284,16,5.08,16h5.836a5.09,5.09,0,0,0,5.078-5.047l.007-4.2zM5.143,4.132H7.96a.97.97,0,0,1,.973.963c0,.53-.436.967-.973.967H5.143c-.537,0-.973-.438-.973-.967a.97.97,0,0,1,.973-.963zm5.723,7.71H5.143c-.537,0-.973-.438-.973-.962a.97.97,0,0,1,.973-.963h5.723a.97.97,0,0,1,.968.963.97.97,0,0,1-.968.962z"/>
  </symbol>
  <symbol id="discord" viewBox="0 0 16 16">
    <path d="m13.545,2.913c-1.021-0.468-2.114-0.813-3.257-1.011-0.021-4e-3,-0.042,6e-3,-0.053,0.026-0.14,0.25-0.295,0.576-0.405,0.832-1.229-0.183-2.453-0.183-3.658,0-0.109-0.262-0.27-0.582-0.412-0.832-0.01-0.018-0.031-0.028-0.052-0.026-1.143,0.197-2.236,0.542-3.256,1.011-0.01,3e-3,-0.018,9e-3,-0.022,0.018-2.074,3.099-2.643,6.122-2.364,9.107,2e-3,0.014,9e-3,0.029,0.021,0.038,1.369,1.004,2.695,1.615,3.995,2.02,0.021,6e-3,0.044-2e-3,0.056-0.019,0.308-0.421,0.582-0.864,0.817-1.329,0.015-0.029,1e-3,-0.061-0.027-0.072-0.436-0.165-0.849-0.365-1.248-0.594-0.032-0.019-0.034-0.064-5e-3,-0.085,0.084-0.063,0.167-0.128,0.247-0.194,0.015-0.013,0.035-0.015,0.052-8e-3,2.619,1.196,5.454,1.196,8.041,0,0.017-7e-3,0.038-5e-3,0.053,8e-3,0.08,0.065,0.163,0.131,0.248,0.194,0.029,0.021,0.027,0.066-5e-3,0.085-0.398,0.233-0.812,0.429-1.248,0.594-0.028,0.011-0.041,0.043-0.027,0.072,0.24,0.465,0.515,0.908,0.816,1.328,0.013,0.018,0.036,0.026,0.057,0.02,1.307-0.405,2.633-1.016,4.001-2.02,0.013-9e-3,0.02-0.022,0.021-0.037,0.334-3.451-0.559-6.449-2.365-9.107-5e-3,-0.01-0.013-0.016-0.021-0.019zm-8.199,7.308c-0.787,0-1.437-0.724-1.437-1.614,0-0.888,0.636-1.612,1.437-1.612,0.808,0,1.452,0.73,1.438,1.612,0,0.89-0.636,1.614-1.438,1.614zm5.317,0c-0.788,0-1.437-0.724-1.437-1.614,0-0.888,0.636-1.612,1.437-1.612,0.808,0,1.45,0.73,1.438,1.612,0,0.89-0.63,1.614-1.438,1.614z"/>
  </symbol>
  <symbol id="facebook" viewBox="0 0 16 16">
    <path d="M16,1v14a1.007,1.007,0,0,1-1,1h-4V9.78h2l.336-2.305H11V5.664a.912.912,0,0,1,1-1.031h1.5V2.555a11.284,11.284,0,0,0-1.641-.109c-2.195,0-3.305,1.22-3.305,3.04v1.992h-2V9.78h2V16H1a1.007,1.007,0,0,1-1-1V1a1.007,1.007,0,0,1,1-1h14a1.007,1.007,0,0,1,1,1z"/>
  </symbol>
  <symbol id="flipboard" viewBox="0 0 16 16">
    <path d="M0,0V16H16V0ZM12.8,6.4H9.6V9.6H6.4v3.2H3.2V3.2h9.6Z"/>
  </symbol>
  <symbol id="github" viewBox="0 0 16 16">
    <path d="M8,.198a8,8,0,0,0-8,8c0,3.535,2.292,6.533,5.47,7.59.4.074.547-.174.547-.385l-.01-1.49c-2.226.484-2.695-.944-2.695-.944-.364-.925-.888-1.17-.888-1.17-.726-.497.055-.486.055-.486.803.056,1.226.824,1.226.824.714,1.223,1.872.87,2.328.665.072-.517.28-.87.508-1.07-1.777-.202-3.645-.888-3.645-3.954,0-.873.313-1.587.824-2.147-.083-.202-.357-1.015.077-2.117,0,0,.672-.215,2.2.82.638-.177,1.322-.266,2.002-.27.68.003,1.365.092,2.004.27,1.527-1.035,2.198-.82,2.198-.82.435,1.102.162,1.916.08,2.117.513.56.823,1.274.823,2.147,0,3.073-1.872,3.75-3.653,3.947.287.248.543.735.543,1.48l-.01,2.195c0,.213.144.462.55.384C13.712,14.727,16,11.73,16,8.196a8,8,0,0,0-8-8z"/>
  </symbol>
  <symbol id="google" viewBox="0 0 16 16">
    <path d="M15.636,6.545H8.182v3.1h4.3c-.4,1.965-2.072,3.092-4.3,3.092A4.72,4.72,0,0,1,3.455,8a4.72,4.72,0,0,1,4.727-4.727c1.127,0,2.145.4,2.945,1.054L13.455,2c-1.42-1.236-3.237-2-5.273-2-4.437,0-8,3.564-8,8s3.563,8,8,8c4,0,7.636-2.9,7.636-8,0-.473-.073-.982-.182-1.455z"/>
  </symbol>
  <symbol id="instagram" viewBox="0 0 16 16">
    <path d="M8,1.44l3.233.047c.78.036,1.203.166,1.485.276a2.47,2.47,0,0,1,.92.598,2.47,2.47,0,0,1,.598.92c.1.282.24.705.276,1.485L14.56,8l-.047,3.233c-.036.78-.166,1.203-.276,1.485a2.47,2.47,0,0,1-.598.92,2.47,2.47,0,0,1-.92.598c-.282.1-.705.24-1.485.276L8,14.56c-2.136,0-2.4-.01-3.233-.047-.78-.036-1.203-.166-1.485-.276a2.479,2.479,0,0,1-.92-.598,2.479,2.479,0,0,1-.598-.92c-.1-.282-.24-.705-.276-1.485L1.44,8l.047-3.233c.036-.78.166-1.203.276-1.485a2.47,2.47,0,0,1,.598-.92,2.47,2.47,0,0,1,.92-.598c.282-.1.705-.24,1.485-.276L8,1.44M8,0L4.702.048C3.85.087,3.27.222,2.76.42a3.921,3.921,0,0,0-1.417.923A3.9,3.9,0,0,0,.42,2.76c-.198.5-.333,1.1-.372,1.942L0,8l.048,3.298c.04.852.174,1.433.372,1.942.204.526.478.973.923,1.417a3.9,3.9,0,0,0,1.417.923c.5.198,1.1.333,1.942.372L8,16l3.298-.048c.852-.04,1.433-.174,1.942-.372a3.921,3.921,0,0,0,1.417-.923,3.9,3.9,0,0,0,.923-1.417c.198-.5.333-1.1.372-1.942L16,8l-.048-3.298c-.04-.852-.174-1.433-.372-1.942a3.921,3.921,0,0,0-.923-1.417A3.921,3.921,0,0,0,13.24.42c-.5-.198-1.1-.333-1.942-.372L8,0zm0,3.892a4.108,4.108,0,1,0,0,8.216,4.108,4.108,0,0,0,0-8.216zm0,6.775a2.667,2.667,0,1,1,0-5.334,2.667,2.667,0,0,1,0,5.334z"/>
    <circle cx='12.27' cy='3.73' r='.96'/>
  </symbol>
  <symbol id="linkedin" viewBox="0 0 16 16">
    <path d="M1.984,4h-.023C.78,4,0,3.187,0,2.164,0,1.133.797.336,2.016.336c1.203,0,1.968.797,1.984,1.828C4,3.187,3.219,4,1.984,4zm1.68,1.664V16H.336V5.664h3.328zM9,16H5.664V8S5.61,6.016,5.61,5.664h3.282L9,7.094c.664-1,1.664-1.758,3-1.758,2.336,0,4,1.664,4,4.664v6h-3.336v-5.664c0-1.672-.812-2.336-1.812-2.336S9,8.664,9,10v6z"/>
  </symbol>
  <symbol id="pinterest" viewBox="0 0 16 16">
    <path d="M8,0a8,8,0,0,0-8,8,8,8,0,0,0,5.085,7.449c-.07-.632-.134-1.603.028-2.294L6.05,9.18s-.24-.48-.24-1.188c0-1.112.645-1.943,1.448-1.943.682,0,1.012.513,1.012,1.127,0,.686-.437,1.712-.663,2.663-.19.796.4,1.446,1.185,1.446,1.422,0,2.514-1.5,2.514-3.663,0-1.916-1.376-3.255-3.34-3.255-2.276,0-3.612,1.707-3.612,3.47,0,.688.265,1.426.595,1.826a.24.24,0,0,1,.056.23l-.222.906c-.036.147-.116.178-.268.108-1-.466-1.624-1.926-1.624-3.1,0-2.523,1.833-4.84,5.286-4.84,2.775,0,4.932,1.978,4.932,4.62,0,2.757-1.738,4.976-4.152,4.976-.8,0-1.572-.42-1.833-.92l-.5,1.902c-.18.695-.668,1.567-.994,2.097A7.99,7.99,0,0,0,8,16,8,8,0,1,0,8,0z"/>
  </symbol>
  <symbol id="tumblr" viewBox="0 0 16 16">
    <path d="M10.55,13.396c-.473,0-.885-.108-1.238-.323-.274-.16-.458-.368-.548-.625-.1-.25-.15-.848-.15-1.792V6.552h3.848v-2.5H8.614V0H6.3c-.107.82-.298,1.5-.572,2.042-.275.534-.638.993-1.1,1.375-.45.375-.996.666-1.638.875v2.26h1.796v5.614c0,.743.08,1.303.234,1.678.148.375.426.74.835,1.093.423.347.9.608,1.46.78.57.2,1.224.283,1.964.283.675,0,1.284-.066,1.827-.198.535-.118,1.163-.344,1.882-.678v-2.52c-.8.528-1.63.792-2.453.792z"/>
  </symbol>
  <symbol id="twitter" viewBox="0 0 16 16">
    <path d="M14.367,4.734v.43A9.268,9.268,0,0,1,5.039,14.5,9.218,9.218,0,0,1,0,13.164a5.182,5.182,0,0,0,.781.055,6.624,6.624,0,0,0,4.07-1.555,3.271,3.271,0,0,1-3.055-2.281,3.226,3.226,0,0,0,.609.063,3.282,3.282,0,0,0,.875-.117A3.279,3.279,0,0,1,.648,6.109v-.04a3.29,3.29,0,0,0,1.484.406A3.266,3.266,0,0,1,.664,3.758a3.128,3.128,0,0,1,.445-1.594,9.328,9.328,0,0,0,6.758,3.367,3.42,3.42,0,0,1-.07-.758A3.268,3.268,0,0,1,11.07,1.5a3.396,3.396,0,0,1,2.414,1.031,6.589,6.589,0,0,0,2.07-.797,3.254,3.254,0,0,1-1.445,1.82A6.402,6.402,0,0,0,16,3.031a6.648,6.648,0,0,1-1.633,1.703z"/>
  </symbol>
  <symbol id="youtube" viewBox="0 0 16 16">
    <path d="M16,8c0,5.66406,0,5.66406-8,5.66406S0,13.66406,0,8,0,2.33594,8,2.33594,16,2.33594,16,8ZM11,8,6,5v6Z"/>
  </symbol>
</svg>
