<svg serveaspectratio="xMidYMid meet" viewBox="0 0 142 24" xmlns="http://www.w3.org/2000/svg">
    <path d="M 139.053 19.53 L 132.227 19.53 L 132.227 14.13 L 141.669 14.13 C 141.85 14.13 142 13.98 142 13.86 L 142 10.05 C 142 9.9 141.85 9.78 141.669 9.78 L 132.227 9.78 L 132.227 4.35 L 139.053 4.35 L 139.053 0 L 127.956 0 C 127.776 0 127.626 0.15 127.626 0.27 L 127.626 23.73 C 127.626 23.85 127.776 24 127.956 24 L 139.053 24 Z M 126.604 19.53 L 118.214 19.53 L 113.612 19.53 L 113.612 23.73 C 113.612 23.85 113.762 24 113.943 24 L 126.604 24 C 126.814 24 126.935 23.85 126.935 23.73 L 126.935 19.83 C 126.935 19.68 126.814 19.53 126.604 19.53 Z M 118.214 14.94 L 118.214 0.27 C 118.214 0.15 118.093 0 117.913 0 L 113.943 0 C 113.762 0 113.612 0.15 113.612 0.27 L 113.612 14.94 Z M 112.56 9.78 L 103.117 9.78 L 103.117 4.35 L 109.944 4.35 L 109.944 0 L 98.848 0 C 98.667 0 98.517 0.15 98.517 0.27 L 98.517 23.73 C 98.517 23.85 98.667 24 98.848 24 L 100.11 24 L 103.087 24 L 103.117 24 L 103.117 14.13 L 112.56 14.13 C 112.741 14.13 112.891 13.98 112.891 13.86 L 112.891 10.05 C 112.891 9.9 112.741 9.78 112.56 9.78 Z M 97.464 9.78 L 88.022 9.78 L 88.022 4.35 L 94.848 4.35 L 94.848 0 L 83.751 0 C 83.571 0 83.42 0.15 83.42 0.27 L 83.42 23.73 C 83.42 23.85 83.571 24 83.751 24 L 85.015 24 L 87.992 24 L 88.022 24 L 88.022 14.13 L 97.464 14.13 C 97.644 14.13 97.795 13.98 97.795 13.86 L 97.795 10.05 C 97.795 9.9 97.644 9.78 97.464 9.78 Z M 82.701 23.64 L 73.558 0.18 C 73.468 -0.06 73.047 -0.06 72.957 0.18 L 63.846 23.64 C 63.756 23.82 63.876 24 64.147 24 L 68.266 24 C 68.386 24 68.537 23.94 68.567 23.82 L 73.258 10.44 L 78.009 23.82 C 78.039 23.94 78.189 24 78.279 24 L 82.43 24 C 82.64 24 82.791 23.82 82.701 23.64 Z M 46.57 23.64 L 37.428 0.18 C 37.338 -0.06 36.916 -0.06 36.827 0.18 L 27.715 23.64 C 27.625 23.82 27.745 24 28.016 24 L 32.135 24 C 32.256 24 32.406 23.94 32.436 23.82 L 37.127 10.44 L 41.879 23.82 C 41.909 23.94 42.06 24 42.15 24 L 46.299 24 C 46.51 24 46.66 23.82 46.57 23.64 Z M 65.359 4.41 L 62.291 12.66 L 57.54 0.18 C 57.48 0.06 57.36 0 57.239 0 L 53.15 0 C 53.03 0 52.909 0.06 52.879 0.18 L 48.097 12.66 L 45.061 4.41 L 40.369 4.41 L 47.826 23.82 C 47.917 24.06 48.308 24.06 48.398 23.82 L 55.195 6.03 L 61.99 23.82 C 62.08 24.06 62.472 24.06 62.562 23.82 L 70.049 4.41 Z M 26.613 19.53 L 19.787 19.53 L 19.787 14.13 L 29.229 14.13 C 29.41 14.13 29.56 13.98 29.56 13.86 L 29.56 10.05 C 29.56 9.9 29.41 9.78 29.229 9.78 L 19.787 9.78 L 19.787 4.35 L 26.613 4.35 L 26.613 0 L 15.517 0 C 15.336 0 15.186 0.15 15.186 0.27 L 15.186 23.73 C 15.186 23.85 15.336 24 15.517 24 L 26.613 24 Z M 4.962 8.7 L 4.962 23.73 C 4.962 23.85 5.082 24 5.293 24 L 9.172 24 C 9.383 24 9.533 23.85 9.533 23.73 L 9.533 8.7 Z M 0.331 4.11 L 14.134 4.11 C 14.344 4.11 14.465 3.99 14.465 3.84 L 14.465 0.27 C 14.465 0.15 14.344 0 14.134 0 L 0.331 0 C 0.15 0 0 0.15 0 0.27 L 0 3.84 C 0 3.99 0.15 4.11 0.331 4.11 Z"/>
</svg>
