<svg viewBox="0 0 16 16" xmlns="http://www.w3.org/2000/svg">
  <path d="M16,6.754c0-.394-.32-.714-.718-.714h0-.72c-.46.001-.935-.015-1.136-.197-.285-.262-.328-.732-.414-1.37-.16-1.234-.264-1.3-.457-1.716C11.85,1.272,9.942.155,8.63,0H5.08C2.284,0,0,2.277,0,5.057v5.897C0,13.728,2.284,16,5.08,16h5.836a5.09,5.09,0,0,0,5.078-5.047l.007-4.2zM5.143,4.132H7.96a.97.97,0,0,1,.973.963c0,.53-.436.967-.973.967H5.143c-.537,0-.973-.438-.973-.967a.97.97,0,0,1,.973-.963zm5.723,7.71H5.143c-.537,0-.973-.438-.973-.962a.97.97,0,0,1,.973-.963h5.723a.97.97,0,0,1,.968.963.97.97,0,0,1-.968.962z"/>
</svg>
