<svg viewBox="0 0 16 16" xmlns="http://www.w3.org/2000/svg">
  <path d="m13.545,2.913c-1.021-0.468-2.114-0.813-3.257-1.011-0.021-4e-3,-0.042,6e-3,-0.053,0.026-0.14,0.25-0.295,0.576-0.405,0.832-1.229-0.183-2.453-0.183-3.658,0-0.109-0.262-0.27-0.582-0.412-0.832-0.01-0.018-0.031-0.028-0.052-0.026-1.143,0.197-2.236,0.542-3.256,1.011-0.01,3e-3,-0.018,9e-3,-0.022,0.018-2.074,3.099-2.643,6.122-2.364,9.107,2e-3,0.014,9e-3,0.029,0.021,0.038,1.369,1.004,2.695,1.615,3.995,2.02,0.021,6e-3,0.044-2e-3,0.056-0.019,0.308-0.421,0.582-0.864,0.817-1.329,0.015-0.029,1e-3,-0.061-0.027-0.072-0.436-0.165-0.849-0.365-1.248-0.594-0.032-0.019-0.034-0.064-5e-3,-0.085,0.084-0.063,0.167-0.128,0.247-0.194,0.015-0.013,0.035-0.015,0.052-8e-3,2.619,1.196,5.454,1.196,8.041,0,0.017-7e-3,0.038-5e-3,0.053,8e-3,0.08,0.065,0.163,0.131,0.248,0.194,0.029,0.021,0.027,0.066-5e-3,0.085-0.398,0.233-0.812,0.429-1.248,0.594-0.028,0.011-0.041,0.043-0.027,0.072,0.24,0.465,0.515,0.908,0.816,1.328,0.013,0.018,0.036,0.026,0.057,0.02,1.307-0.405,2.633-1.016,4.001-2.02,0.013-9e-3,0.02-0.022,0.021-0.037,0.334-3.451-0.559-6.449-2.365-9.107-5e-3,-0.01-0.013-0.016-0.021-0.019zm-8.199,7.308c-0.787,0-1.437-0.724-1.437-1.614,0-0.888,0.636-1.612,1.437-1.612,0.808,0,1.452,0.73,1.438,1.612,0,0.89-0.636,1.614-1.438,1.614zm5.317,0c-0.788,0-1.437-0.724-1.437-1.614,0-0.888,0.636-1.612,1.437-1.612,0.808,0,1.45,0.73,1.438,1.612,0,0.89-0.63,1.614-1.438,1.614z"/>
</svg>
