<svg viewBox="0 0 16 16" xmlns="http://www.w3.org/2000/svg">
  <path d="M8,.198a8,8,0,0,0-8,8c0,3.535,2.292,6.533,5.47,7.59.4.074.547-.174.547-.385l-.01-1.49c-2.226.484-2.695-.944-2.695-.944-.364-.925-.888-1.17-.888-1.17-.726-.497.055-.486.055-.486.803.056,1.226.824,1.226.824.714,1.223,1.872.87,2.328.665.072-.517.28-.87.508-1.07-1.777-.202-3.645-.888-3.645-3.954,0-.873.313-1.587.824-2.147-.083-.202-.357-1.015.077-2.117,0,0,.672-.215,2.2.82.638-.177,1.322-.266,2.002-.27.68.003,1.365.092,2.004.27,1.527-1.035,2.198-.82,2.198-.82.435,1.102.162,1.916.08,2.117.513.56.823,1.274.823,2.147,0,3.073-1.872,3.75-3.653,3.947.287.248.543.735.543,1.48l-.01,2.195c0,.213.144.462.55.384C13.712,14.727,16,11.73,16,8.196a8,8,0,0,0-8-8z"/>
</svg>
