<svg viewBox="0 0 16 16" xmlns="http://www.w3.org/2000/svg">
  <path d="M8,1.44l3.233.047c.78.036,1.203.166,1.485.276a2.47,2.47,0,0,1,.92.598,2.47,2.47,0,0,1,.598.92c.1.282.24.705.276,1.485L14.56,8l-.047,3.233c-.036.78-.166,1.203-.276,1.485a2.47,2.47,0,0,1-.598.92,2.47,2.47,0,0,1-.92.598c-.282.1-.705.24-1.485.276L8,14.56c-2.136,0-2.4-.01-3.233-.047-.78-.036-1.203-.166-1.485-.276a2.479,2.479,0,0,1-.92-.598,2.479,2.479,0,0,1-.598-.92c-.1-.282-.24-.705-.276-1.485L1.44,8l.047-3.233c.036-.78.166-1.203.276-1.485a2.47,2.47,0,0,1,.598-.92,2.47,2.47,0,0,1,.92-.598c.282-.1.705-.24,1.485-.276L8,1.44M8,0L4.702.048C3.85.087,3.27.222,2.76.42a3.921,3.921,0,0,0-1.417.923A3.9,3.9,0,0,0,.42,2.76c-.198.5-.333,1.1-.372,1.942L0,8l.048,3.298c.04.852.174,1.433.372,1.942.204.526.478.973.923,1.417a3.9,3.9,0,0,0,1.417.923c.5.198,1.1.333,1.942.372L8,16l3.298-.048c.852-.04,1.433-.174,1.942-.372a3.921,3.921,0,0,0,1.417-.923,3.9,3.9,0,0,0,.923-1.417c.198-.5.333-1.1.372-1.942L16,8l-.048-3.298c-.04-.852-.174-1.433-.372-1.942a3.921,3.921,0,0,0-.923-1.417A3.921,3.921,0,0,0,13.24.42c-.5-.198-1.1-.333-1.942-.372L8,0zm0,3.892a4.108,4.108,0,1,0,0,8.216,4.108,4.108,0,0,0,0-8.216zm0,6.775a2.667,2.667,0,1,1,0-5.334,2.667,2.667,0,0,1,0,5.334z"/>
  <circle cx='12.27' cy='3.73' r='.96'/>
</svg>
