<svg viewBox="0 0 16 16" xmlns="http://www.w3.org/2000/svg">
  <path d="M10.55,13.396c-.473,0-.885-.108-1.238-.323-.274-.16-.458-.368-.548-.625-.1-.25-.15-.848-.15-1.792V6.552h3.848v-2.5H8.614V0H6.3c-.107.82-.298,1.5-.572,2.042-.275.534-.638.993-1.1,1.375-.45.375-.996.666-1.638.875v2.26h1.796v5.614c0,.743.08,1.303.234,1.678.148.375.426.74.835,1.093.423.347.9.608,1.46.78.57.2,1.224.283,1.964.283.675,0,1.284-.066,1.827-.198.535-.118,1.163-.344,1.882-.678v-2.52c-.8.528-1.63.792-2.453.792z"/>
</svg>
